<?xml version="1.0" encoding="UTF-8"?>
<!DOCTYPE svg PUBLIC "-//W3C//DTD SVG 1.1//EN" "http://www.w3.org/Graphics/SVG/1.1/DTD/svg11.dtd">
<!-- Creator: CorelDRAW X5 -->
<svg xmlns="http://www.w3.org/2000/svg" xml:space="preserve" width="255px" height="70px" style="shape-rendering:geometricPrecision; text-rendering:geometricPrecision; image-rendering:optimizeQuality; fill-rule:evenodd; clip-rule:evenodd"
viewBox="0 0 25500 7000"
 xmlns:xlink="http://www.w3.org/1999/xlink"
 version="1.1"
 xmlns:cc="http://creativecommons.org/ns#"
 xmlns:dc="http://purl.org/dc/elements/1.1/"
 xmlns:rdf="http://www.w3.org/1999/02/22-rdf-syntax-ns#"
 xmlns:svg="http://www.w3.org/2000/svg">
 <defs>
  <style type="text/css">
   <![CDATA[
    .fil0 {fill:#EF7F1A}
   ]]>
  </style>
 </defs>
 <g id="Слой_x0020_1">
  <metadata id="CorelCorpID_0Corel-Layer"/>
  <g id="_212608416">
   <path class="fil0" d="M3045 5138l0 91 -254 0 0 -3126 226 0c21,0 27,6 27,27l0 2691c0,25 2,56 0,81 -14,170 0,78 0,236zm308 -9l0 -2972c183,0 352,13 526,27 62,5 99,21 148,43 76,34 31,9 124,58 38,20 84,45 119,71l101 90c102,103 177,189 244,318 12,24 21,28 35,56 35,74 117,268 126,336 26,189 64,183 64,507 0,93 -11,265 -28,344 -11,49 -26,97 -34,147 -14,82 -86,263 -123,339l-146 235c-20,28 -26,30 -46,53l-87 95c-54,55 -71,66 -129,106 -48,33 -5,12 -83,53 -151,80 -264,115 -447,115l-362 -18zm-2255 -3271c0,21 6,27 27,27l1350 0 0 118c-100,0 -313,-11 -399,9l0 91 399 0 0 3126 -399 0c0,71 -10,100 27,100l1938 0c92,0 285,-27 366,-50 129,-38 120,-40 230,-87 36,-15 33,-22 67,-41 89,-49 163,-115 242,-175 98,-75 178,-181 252,-274l122 -195c14,-32 18,-39 34,-65 18,-30 19,-39 33,-76 12,-32 22,-44 33,-75 17,-45 63,-210 68,-250 8,-66 19,-125 26,-182 23,-181 -20,-550 -92,-728 -27,-67 -52,-117 -85,-178 -14,-25 -5,-13 -15,-39l-79 -130c-17,-23 -27,-45 -43,-66 -13,-17 -30,-37 -45,-55l-178 -194c-39,-39 -157,-127 -209,-162 -40,-27 -189,-111 -234,-128l-114 -49c-174,-57 -203,-72 -416,-109 -139,-24 -1089,-17 -1215,-17l0 -118 1313 0c151,0 297,26 429,69 81,26 167,51 240,96 190,117 88,38 281,181 52,38 109,87 154,136 191,210 335,426 400,705 153,0 93,-48 58,-157 -60,-182 -113,-261 -216,-418 -110,-168 -262,-289 -408,-407 -33,-27 -184,-115 -229,-134 -26,-11 -31,-16 -61,-30 -134,-62 -203,-75 -343,-110 -94,-24 -218,-31 -332,-31l-2980 0 0 73z"/>
   <path class="fil0" d="M247 3489c0,-141 13,-280 27,-408 7,-59 10,-119 24,-176 26,-113 44,-212 80,-319 19,-56 24,-99 46,-154 20,-52 30,-97 54,-146 13,-28 22,-42 31,-69 17,-51 36,-83 58,-132 58,-132 209,-386 300,-497l42 -58c16,-18 4,0 23,-22 74,-91 124,-155 211,-242 22,-22 27,-36 45,-54 18,-18 29,-20 50,-41 61,-59 141,-141 210,-189l58 -41c11,-8 15,-10 27,-18 144,-103 133,-92 271,-182l190 -109c45,-27 91,-41 137,-62l277 -112c54,-22 97,-27 154,-46 28,-9 47,-16 76,-23l247 -52c115,-26 429,-47 550,-47 127,0 417,21 540,49 205,47 427,86 616,172 89,41 184,71 268,121 62,37 131,66 191,108 58,41 100,53 182,117l366 295c37,38 81,68 116,110 75,90 161,172 231,268 15,21 25,37 41,58l86 114c15,20 22,42 36,63 5,8 14,19 19,26 31,44 107,178 128,225 13,31 19,40 34,65 33,57 138,344 168,421 11,30 13,50 20,79 14,56 34,96 43,156 18,123 48,216 58,341 26,330 35,440 1,772 -18,172 -55,334 -99,499l-48 151c-8,22 -14,51 -23,76l-115 275c-11,21 -26,40 -37,63 -42,86 -88,176 -144,254l-81 119c-63,102 -179,245 -266,331l-44 47c-118,128 -253,246 -394,349l-150 104c-70,42 -90,64 -186,113l-261 137c-27,13 -36,13 -66,24 -27,10 -41,22 -67,32 -94,36 -289,104 -376,122 -80,16 -167,45 -244,54l-179 20c-122,14 -252,27 -371,27 -180,0 -363,-28 -542,-46 -62,-6 -267,-57 -322,-77 -37,-13 -33,-15 -76,-24 -52,-11 -101,-33 -147,-52 -26,-11 -48,-12 -77,-23l-333 -156c-64,-30 -129,-71 -190,-109 -26,-16 -34,-28 -57,-42 -15,-9 -12,-6 -29,-17l-149 -105c-94,-71 -197,-153 -278,-238 0,0 -10,-12 -13,-14 -11,-12 -15,-17 -27,-28 -80,-80 -168,-165 -235,-255 -29,-39 -59,-87 -93,-125 -67,-74 -174,-259 -226,-354 -41,-74 -98,-187 -126,-264 -15,-42 -46,-97 -59,-140 -116,-376 -201,-688 -201,-1094zm-190 -127c0,193 5,411 35,590l23 176c11,64 64,264 86,322 37,97 61,206 107,301 34,70 56,147 94,214 13,22 24,38 36,64l72 136c45,85 111,165 161,246l85 115c9,12 9,17 17,28l77 86c62,79 131,145 199,218 19,20 27,32 47,53 23,23 31,26 54,46 21,18 29,29 52,48 23,19 36,32 57,51 15,13 10,8 26,20l87 67c11,9 12,13 24,22 87,65 182,130 276,186 108,65 221,128 336,180 71,32 138,63 211,87 25,9 48,20 77,32 26,11 44,18 74,26 57,14 96,36 152,47 38,8 60,11 90,19 405,106 862,135 1280,71 142,-22 377,-65 506,-110l156 -52c53,-22 102,-33 151,-58 30,-15 36,-20 69,-30 34,-11 44,-18 75,-33 66,-33 139,-59 199,-100 96,-65 175,-98 290,-181 109,-78 223,-159 321,-250l163 -154 376 -448c95,-150 191,-298 266,-459l95 -213c26,-55 116,-322 128,-388 16,-84 45,-171 60,-257 74,-430 65,-761 4,-1189 -13,-91 -90,-395 -126,-491l-116 -300 -137 -270c-43,-91 -102,-174 -159,-258l-41 -58c-51,-65 -98,-137 -153,-200l-37 -44c-13,-18 -3,-5 -12,-15l-253 -254c-14,-13 -10,-12 -27,-27l-42 -40c-8,-7 -6,-5 -16,-12 -18,-13 -7,-3 -25,-20 -12,-11 -3,-5 -13,-14l-69 -57c-55,-47 -118,-92 -178,-130l-386 -230c-88,-49 -259,-128 -358,-158 -28,-8 -50,-18 -73,-27 -104,-43 -288,-84 -403,-114 -142,-36 -411,-69 -556,-69 -211,0 -450,-4 -651,37 -55,11 -118,13 -173,26 -133,32 -427,111 -552,163 -146,61 -337,153 -474,233l-121 78c-72,39 -231,151 -285,205l-9 9c-12,11 -18,13 -31,23 -15,12 -16,14 -29,25 -124,108 -253,222 -356,350 -83,103 -168,201 -239,313 -33,52 -75,96 -102,151l-110 198c-35,71 -76,131 -101,207l-84 215c-43,105 -69,203 -96,312 -38,154 -28,106 -49,250 -22,153 -51,293 -51,466z"/>
   <path class="fil0" d="M16413 3090c0,315 18,642 18,979 0,255 -18,493 -18,761 0,21 6,27 27,27 371,0 299,64 299,-290 0,-90 9,-241 -2,-324 -22,-160 -6,-461 -6,-646 44,29 94,107 128,153 41,55 82,102 123,158l120 161c11,15 17,20 29,35 12,15 17,25 30,43 115,160 298,394 424,563 136,180 58,148 378,148 21,0 36,-15 36,-36 0,-124 6,-485 0,-598 -2,-40 -9,-43 -9,-90 -3,-217 19,-505 19,-725 0,-298 62,-335 -82,-335 -44,0 -62,8 -90,8 -173,0 -163,-68 -163,137 0,88 7,482 16,546 19,137 2,416 2,568 -47,-12 -101,-112 -131,-150 -44,-56 -78,-103 -120,-161 -110,-147 -713,-958 -727,-958 -63,0 -93,14 -145,18 -64,5 -96,-4 -154,9z"/>
   <path class="fil0" d="M22408 3987c-95,0 -259,0 -335,-18 0,-144 -16,-498 9,-607 105,-51 434,-27 541,30 112,60 139,167 139,314 0,206 -147,281 -353,281zm-643 -63c0,319 -27,596 -27,906 0,44 80,27 163,27 269,0 179,70 181,-317 2,-355 -112,-299 344,-299 74,0 89,67 113,123 26,63 191,493 241,493l335 0c-2,-82 -276,-589 -299,-689 86,-129 272,-101 272,-580 0,-300 -245,-480 -519,-514 -95,-12 -362,-2 -496,-2 -67,0 -109,8 -163,9 -40,1 -141,-16 -164,8 -23,23 -8,125 -3,159 8,51 22,592 22,676z"/>
   <path class="fil0" d="M13551 3969c0,335 168,675 456,831 212,115 493,120 721,47 39,-12 82,-28 119,-44 22,-10 94,-54 109,-54 31,0 105,73 190,73 50,0 23,-100 19,-128 -17,-149 -4,-278 -16,-401l5 -295c0,-51 -85,-27 -199,-27 -186,0 -163,-78 -137,264 6,82 19,164 19,244 -62,14 -499,297 -795,-65 -396,-484 18,-1235 525,-1032 158,63 216,178 315,264 57,-30 199,-198 199,-217 0,-109 -335,-390 -643,-390 -171,0 -276,14 -420,87 -53,27 -88,52 -131,86 -48,38 -126,123 -157,169 -15,23 -30,44 -43,66 -85,147 -136,339 -136,525z"/>
   <path class="fil0" d="M7302 3887c0,187 3,406 -17,581l-11 316c0,39 -1,72 37,72 106,0 271,10 370,-1 103,-12 246,-14 364,-8 40,2 38,8 81,9 30,1 62,-2 91,0 231,12 220,77 244,-100 8,-58 28,-103 28,-162 0,-53 -112,-20 -145,-18 -65,3 -114,4 -181,10 -117,9 -232,18 -363,18 -237,0 -190,-82 -190,-480 0,-22 15,-27 27,-45 240,0 381,-24 654,8 125,15 100,4 111,-85 29,-229 27,-233 -63,-218 -45,7 -484,24 -548,24 -222,0 -181,51 -181,-371 0,-155 200,-99 362,-100l230 15c76,12 162,4 241,4 16,-69 -10,-227 -45,-281 -195,0 -365,9 -552,9 -159,0 -366,-16 -517,-10 -83,4 -45,49 -44,118 3,234 18,455 18,698z"/>
   <path class="fil0" d="M19329 3860c0,195 4,435 -17,617l-11 307c0,39 -1,72 37,72 106,0 271,10 370,-1 103,-12 246,-14 364,-8 40,2 38,8 81,9 30,1 62,-2 91,0 111,6 214,51 232,-12l39 -250c0,-53 -112,-20 -145,-18 -180,9 -362,27 -543,27 -237,0 -190,-82 -190,-480 0,-22 15,-27 27,-45 240,0 381,-24 653,8 125,15 100,4 111,-85 29,-229 27,-233 -63,-218 -40,7 -71,3 -110,8l-437 16c-222,0 -181,51 -181,-371 0,-155 200,-99 362,-100 53,0 66,7 108,9l362 9c16,-69 -9,-227 -45,-281 -195,0 -365,9 -552,9 -172,0 -330,-12 -508,-10 -93,1 -56,41 -53,109 8,227 18,444 18,680z"/>
   <path class="fil0" d="M9720 3570c0,242 106,329 270,428 116,69 346,154 346,324 0,87 -52,156 -111,188 -154,83 -319,48 -486,48 0,74 25,118 39,188 28,149 -9,138 215,138 544,0 831,-507 605,-850 -66,-101 -139,-129 -240,-186 -71,-40 -226,-106 -271,-164 -110,-139 -47,-414 358,-285 45,14 117,49 164,53l127 -263c-129,-87 -308,-127 -498,-127 -290,0 -516,216 -516,507z"/>
   <path class="fil0" d="M24328 3561c0,490 462,429 591,669 52,97 19,246 -136,302 -150,55 -281,26 -436,26 0,29 46,271 54,308 115,27 57,18 199,18 98,0 178,-21 253,-46 224,-75 418,-255 418,-506 0,-159 -22,-306 -167,-404 -18,-12 -34,-18 -52,-29l-158 -86c-150,-75 -247,-117 -247,-269 0,-124 114,-181 217,-181 126,0 239,66 344,91 67,-100 35,-86 103,-197 4,-7 15,-24 18,-28 36,-66 -80,-89 -180,-123 -231,-77 -485,-58 -675,102 -88,73 -143,232 -143,355z"/>
   <path class="fil0" d="M11984 3905c0,152 3,380 -9,525 -5,63 -26,382 -9,417 51,25 266,9 344,9 15,-64 11,-157 2,-220 -10,-71 2,-159 -2,-233 -8,-145 -18,-307 -18,-453l18 -454c6,-74 -4,-160 0,-235 9,-167 48,-190 -81,-190 -44,0 -62,8 -91,8l-145 -8c-61,0 -27,125 -27,172 3,238 18,427 18,662z"/>
   <path class="fil0" d="M8325 2700l181 0 -10 -309c0,-34 -7,-63 28,-63l417 0 0 299c0,82 -67,73 172,73 0,-157 -9,-282 -9,-435 0,-70 14,-363 10,-400 -6,-56 -24,-29 -112,-35 -78,-5 -61,-11 -61,199 0,76 16,86 0,154l-444 0c0,-69 -2,-152 7,-211 22,-164 -11,-145 -67,-141 -152,11 -109,-44 -103,179l6 342c-7,55 -4,109 -6,175 -2,62 -9,60 -9,172z"/>
   <path class="fil0" d="M9738 2700c59,13 192,0 281,0 109,0 189,9 290,9 10,-42 18,-93 18,-145l-380 9c-66,0 -48,-205 -36,-254l380 0c0,-60 9,-84 9,-136l-389 0c-10,-44 -19,-158 1,-198 26,-50 141,-19 216,-19l181 0c0,-75 -8,-94 -9,-127 -96,-23 -192,0 -281,0l-254 -9c-55,0 -18,111 -18,190 0,84 1,157 8,228 4,45 -8,57 -8,107 -1,38 2,80 0,118 -2,42 -10,56 -9,108 0,39 0,79 0,118z"/>
   <path class="fil0" d="M7121 1975l190 0c69,0 54,-78 54,317 0,147 -9,261 -9,408l181 0c0,-132 -9,-231 -9,-362 0,-124 0,-248 0,-372 295,25 226,32 226,-136 -119,0 -288,32 -411,13 -42,-6 -80,0 -121,-6 -100,-15 -69,-18 -93,84 -5,21 -8,27 -9,54z"/>
  </g>
 </g>
</svg>
