<?xml version="1.0" encoding="UTF-8"?>
<!DOCTYPE svg PUBLIC "-//W3C//DTD SVG 1.1//EN" "http://www.w3.org/Graphics/SVG/1.1/DTD/svg11.dtd">
<!-- Creator: CorelDRAW X5 -->
<svg xmlns="http://www.w3.org/2000/svg" xml:space="preserve" width="255px" height="70px" style="shape-rendering:geometricPrecision; text-rendering:geometricPrecision; image-rendering:optimizeQuality; fill-rule:evenodd; clip-rule:evenodd"
viewBox="0 0 25500 7000"
 xmlns:xlink="http://www.w3.org/1999/xlink"
 version="1.1"
 xmlns:cc="http://creativecommons.org/ns#"
 xmlns:dc="http://purl.org/dc/elements/1.1/"
 xmlns:rdf="http://www.w3.org/1999/02/22-rdf-syntax-ns#"
 xmlns:svg="http://www.w3.org/2000/svg">
 <defs>
  <style type="text/css">
   <![CDATA[
    .fil0 {fill:#00A0E3}
   ]]>
  </style>
 </defs>
 <g id="Слой_x0020_1">
  <metadata id="CorelCorpID_0Corel-Layer"/>
  <path class="fil0" d="M22578 2686c206,-27 404,49 532,142 109,80 221,237 249,428 61,429 -200,735 -561,790 -410,63 -723,-229 -777,-570 -64,-404 222,-746 558,-790zm-11582 -951c12,26 271,328 291,343 24,-22 49,-53 71,-81 34,-44 198,-229 210,-262 -14,-18 -269,-326 -289,-343 -26,15 -117,134 -144,168 -23,30 -45,53 -69,84 -21,27 -55,62 -71,90zm97 660l-3 2005 368 -59 2 -2002c-44,-5 -305,45 -367,56zm5105 11l0 1994 365 -59c17,-88 -14,-894 12,-1100 21,-168 86,-298 173,-385 114,-114 218,-135 421,-143l150 -365c-173,-21 -395,2 -516,82 -91,61 -162,144 -219,239 -11,19 -19,30 -28,49 -2,4 -13,25 -13,25 -12,15 -1,11 -23,14l0 -421c-51,4 -113,19 -166,29 -37,7 -137,10 -157,41zm-11273 -710l0 2688 365 -43c14,-60 4,-2672 4,-2717 -84,10 -192,31 -279,45 -56,9 -76,3 -90,27zm4969 223l0 471 -165 1c-17,44 -128,292 -123,324l288 0c0,218 0,436 0,654 0,383 -68,774 324,970 177,89 368,65 577,48l68 -334c-152,9 -306,49 -452,-7 -134,-52 -147,-182 -147,-350 0,-148 -9,-905 3,-982l502 0 0 -322 -503 -1 -2 -558 -370 86zm5108 0l-1 471 -151 2 -130 321 279 2c8,63 2,541 2,646 0,376 -67,765 332,974 194,101 359,61 582,53l69 -335c-153,10 -316,49 -459,-9 -125,-50 -154,-177 -154,-340 0,-169 -9,-885 2,-988l551 -2 0 -321 -551 -2 -1 -558 -369 86zm-5514 2151c-11,-24 -94,-101 -114,-123 -24,-26 -99,-108 -124,-120 -90,80 -165,156 -293,201 -385,134 -803,-222 -817,-637 -16,-506 463,-884 962,-630 53,27 113,80 156,97 37,-35 212,-234 220,-255 -318,-259 -760,-370 -1153,-168 -769,395 -728,1537 45,1881 299,133 633,115 909,-72 72,-48 160,-117 208,-175zm-4907 1c-12,-23 -206,-222 -234,-244 -41,19 -138,146 -297,199 -401,136 -806,-227 -820,-635 -11,-317 168,-541 357,-645 172,-94 433,-85 609,16 42,24 129,88 160,97 18,-34 72,-89 105,-124 17,-18 96,-109 106,-131 -651,-586 -1733,-179 -1707,802 11,405 252,745 605,912 193,91 431,111 650,48 208,-59 355,-186 466,-295zm8962 -1c-15,-25 -201,-212 -234,-243 -37,16 -134,142 -296,200 -138,49 -299,34 -420,-26 -184,-90 -389,-321 -399,-602 -12,-324 159,-543 352,-650 120,-66 270,-84 425,-55 172,32 220,96 339,164 12,-8 181,-194 210,-235 10,-14 5,-5 11,-19 -100,-110 -343,-217 -504,-250 -621,-128 -1210,325 -1202,1052 9,851 1069,1371 1720,664zm10654 -209c-34,11 -245,195 -259,216 13,15 18,26 31,42 313,381 1030,395 1260,-60 77,-153 89,-381 12,-541 -174,-363 -654,-281 -842,-463 -55,-53 -84,-151 -49,-250 58,-162 373,-206 573,-38 26,22 66,67 88,80 32,-38 70,-77 104,-117 18,-22 37,-38 55,-59 17,-21 30,-42 56,-58 -41,-84 -263,-221 -391,-254 -728,-186 -1059,529 -768,913 183,241 751,193 840,450 111,322 -309,429 -537,293 -58,-35 -146,-110 -172,-156zm-4589 -1464c-9,18 -7,27 -7,55 1,649 -4,1302 0,1948 77,-4 180,-28 259,-41 137,-22 111,10 111,-182 0,-201 0,-402 0,-603 0,-173 -16,-414 33,-566 49,-150 156,-254 293,-309 146,-59 376,-48 496,33 149,102 142,236 142,460 0,402 -3,806 0,1209l370 -60c0,-299 0,-598 0,-897 0,-269 36,-607 -95,-809 -242,-373 -889,-371 -1125,-148 -60,57 -90,103 -103,114 -2,2 -4,3 -5,4 -1,1 -4,3 -6,4l0 -271c-32,-4 -332,46 -364,58zm-13581 1018c5,-323 53,-500 275,-638 194,-121 541,-140 680,28 -15,17 -908,591 -954,610zm1424 694c1,-29 -59,-360 -70,-386 -27,11 -100,74 -135,99 -249,174 -578,332 -876,161 -47,-27 -104,-72 -135,-101 -24,-24 -91,-100 -105,-139 19,-19 1321,-851 1361,-867 -37,-121 -266,-349 -390,-426 -174,-108 -453,-147 -685,-93 -381,88 -722,436 -764,869 -23,244 40,493 140,671 220,393 666,576 1113,483 179,-37 426,-181 546,-272zm10309 -693c8,-170 -4,-255 64,-399 51,-108 119,-180 211,-239 225,-141 602,-121 682,34 -41,19 -426,270 -476,302 -70,44 -442,288 -481,302zm1430 694l-71 -390c-123,63 -563,512 -1009,262 -78,-44 -210,-161 -242,-241 40,-37 1047,-667 1187,-761 52,-35 121,-81 173,-108 -36,-119 -262,-346 -393,-425 -177,-106 -453,-144 -686,-91 -380,87 -721,440 -761,872 -47,514 230,905 554,1065 195,97 453,134 696,85 158,-32 296,-114 426,-191 38,-22 92,-65 126,-79zm-18082 -693c-17,-328 86,-511 277,-636 94,-61 219,-101 358,-99 215,2 234,56 328,119 -25,35 -664,432 -720,466 -44,27 -211,137 -244,150zm-335 210c-53,51 -590,365 -667,429 13,17 239,175 264,187l525 -315c19,19 43,59 64,87 162,211 391,345 674,379 182,22 374,0 527,-67 204,-89 257,-151 383,-219l-71 -387c-28,11 -101,74 -134,98 -130,94 -316,200 -483,227 -213,34 -384,-30 -527,-164 -23,-22 -94,-101 -108,-140 35,-34 920,-588 1020,-654l341 -215c-25,-70 -151,-216 -194,-264 -262,-287 -720,-350 -1050,-196 -318,149 -555,442 -594,795 -19,168 9,266 30,419zm22555 -1931l0 912c-49,-22 -211,-191 -488,-252 -599,-133 -1223,319 -1199,1035 26,781 848,1276 1488,866 44,-28 171,-136 197,-175l2 304 365 -45 3 -2716c-56,2 -207,32 -278,44 -56,9 -75,3 -91,27z"/>
 </g>
</svg>
