<?xml version="1.0" encoding="UTF-8"?>
<!DOCTYPE svg PUBLIC "-//W3C//DTD SVG 1.1//EN" "http://www.w3.org/Graphics/SVG/1.1/DTD/svg11.dtd">
<!-- Creator: CorelDRAW X5 -->
<svg xmlns="http://www.w3.org/2000/svg" xml:space="preserve" width="180px" height="180px" style="shape-rendering:geometricPrecision; text-rendering:geometricPrecision; image-rendering:optimizeQuality; fill-rule:evenodd; clip-rule:evenodd"
viewBox="0 0 18000 18000"
 xmlns:xlink="http://www.w3.org/1999/xlink"
 version="1.1"
 xmlns:cc="http://creativecommons.org/ns#"
 xmlns:dc="http://purl.org/dc/elements/1.1/"
 xmlns:rdf="http://www.w3.org/1999/02/22-rdf-syntax-ns#"
 xmlns:svg="http://www.w3.org/2000/svg">
 <defs>
  <style type="text/css">
   <![CDATA[
    .fil0 {fill:##EDBB52}
   ]]>
  </style>
 </defs>
 <g id="Слой_x0020_1">
  <metadata id="CorelCorpID_0Corel-Layer"/>
  <path class="fil0" d="M16767 14815l-4732 0 0 -3750 4999 0 0 3482c0,206 -62,268 -268,268zm-5803 -5892c-147,553 0,290 0,625 1871,436 1394,-714 982,-714 -329,0 -673,-30 -982,89zm-9553 -7678c3399,0 2734,-467 3099,1722 95,572 281,1396 293,1939l-3928 0c0,-996 518,-2863 536,-3660zm-1428 4107c0,574 1195,357 2411,357l0 10267c-729,0 -957,-82 -1339,357 53,227 75,446 357,446 870,0 3125,201 3125,-268 0,-658 -581,-536 -1339,-536l0 -10267c3084,0 2652,479 2143,-2589 -77,-463 -154,-879 -230,-1377 -235,-1546 415,-1212 -4055,-1212 -408,0 -408,550 -472,956 -123,775 -599,3298 -599,3865zm6160 9195l0 -3482 5089 0 0 3750 -4821 0c-206,0 -268,-62 -268,-268zm0 -6249c0,-209 148,-357 357,-357l10267 0c472,0 268,1012 268,2321l-10892 0 0 -1964zm2053 -3214l1429 0 0 2053 -1429 0 0 -2053zm-714 -714c-187,802 -89,1915 -89,2768 -674,0 -2053,-33 -2053,1161l0 8124c0,484 803,484 803,0l0 -804 10892 0c0,664 -104,1161 446,1161 209,0 357,-148 357,-357l0 -8214c0,-296 -218,-612 -393,-768 -215,-191 -487,-304 -857,-304l-6160 0 0 -2500c0,-580 -1250,-357 -2500,-357 -141,0 -338,47 -446,89z"/>
 </g>
</svg>
