<?xml version="1.0" encoding="UTF-8"?>
<!DOCTYPE svg PUBLIC "-//W3C//DTD SVG 1.1//EN" "http://www.w3.org/Graphics/SVG/1.1/DTD/svg11.dtd">
<!-- Creator: CorelDRAW X5 -->
<svg xmlns="http://www.w3.org/2000/svg" xml:space="preserve" width="180px" height="180px" style="shape-rendering:geometricPrecision; text-rendering:geometricPrecision; image-rendering:optimizeQuality; fill-rule:evenodd; clip-rule:evenodd"
viewBox="0 0 18000 18000"
 xmlns:xlink="http://www.w3.org/1999/xlink"
 version="1.1"
 xmlns:cc="http://creativecommons.org/ns#"
 xmlns:dc="http://purl.org/dc/elements/1.1/"
 xmlns:rdf="http://www.w3.org/1999/02/22-rdf-syntax-ns#"
 xmlns:svg="http://www.w3.org/2000/svg">
 <defs>
  <style type="text/css">
   <![CDATA[
    .fil0 {fill:#EDBB52}
   ]]>
  </style>
 </defs>
 <g id="Слой_x0020_1">
  <metadata id="CorelCorpID_0Corel-Layer"/>
  <path class="fil0" d="M2741 16683c-1687,238 -1561,-2117 4,-1810l-4 1810zm8080 -8024c-13,-506 65,-2104 -28,-2465 -190,-30 -455,-46 -634,11l-12 2425c-206,0 -409,0 -613,0 -106,0 -212,0 -319,-1 -354,-5 -249,21 -289,60l11 604 3697 8 1 3067 -608 4c0,-681 11,-1371 2,-2051 -7,-573 -470,-421 -1537,-421 -1184,0 -1564,-154 -1567,461 -4,664 2,1331 2,1995 -188,29 -429,42 -608,-12l1 -4260 -629 0 0 4287 -3699 -5 0 -2457 2459 -6 2 -622 -2462 -5 0 -4310 1223 -6 3 -609c-301,-46 -818,-14 -1143,-15 -957,-3 -712,57 -712,2640 0,1501 0,3002 0,4503 0,371 -19,794 -1,1157 22,435 369,365 753,364l6695 0c2683,0 2454,222 2454,-924l0 -6735c0,-295 89,-806 -146,-951 -192,-118 -6197,-63 -6654,-51l0 624 1224 7 14 1840 615 0 1 -1817c196,-61 3961,-62 4316,-15l-1 3685 -1812 -4zm-3112 8362l4610 12 7 282 -4622 -7 4 -286zm5242 -936c485,-6 753,11 757,533 6,673 -110,692 -751,685l-3 -484 -3 -734zm-5884 230l5 803c-159,-57 -284,-130 -426,-201 -131,-65 -284,-121 -382,-215l803 -388zm638 -212l4618 -12 1 311 -4622 -13 3 -286zm-2473 717c57,198 711,455 917,555 1400,683 890,569 2308,569 1412,0 2961,26 4344,-9 496,-13 841,46 1173,-261 345,-319 368,-491 361,-1094 -14,-1243 -1110,-1127 -1813,-1125l-4344 17c-633,3 -726,-71 -1240,186 -316,158 -633,321 -954,481 -477,238 -854,328 -752,680zm4347 -4472c-42,-47 -39,-33 -42,-188 -1,-78 2,-163 2,-242 0,-389 -16,-1048 7,-1382 210,-60 1596,-47 1859,-14 26,292 52,1637 -19,1854 -294,22 -637,7 -936,7 -111,0 -806,47 -871,-35zm-8059 2166c-59,-2926 -3,-6184 -3,-9172 0,-936 -206,-2110 807,-2220 415,-45 11774,-7 12163,-7l7 9261c824,63 1488,-139 1776,575 129,321 65,695 -123,921 -190,229 -387,347 -796,355 -1558,27 -3143,-1 -4704,-1 -1568,0 -3135,0 -4703,0 -912,0 -2702,-37 -3549,2 -445,21 -558,143 -877,286zm13600 -13865c550,-35 909,110 1109,466 178,316 112,1064 112,1476 0,1063 0,2126 0,3188 0,2089 55,4253 -3,6333 -737,-368 -234,-295 -1222,-366l3 -11097zm-14236 3207l0 12085c121,270 79,426 283,714 467,656 1384,806 2203,656l0 -2457 11661 0c1365,1 1939,-530 1937,-1900l0 -9685c0,-1225 267,-2458 -789,-3062 -410,-235 -1159,-235 -1692,-188l-1 2463 -11252 0c-612,0 -1156,-55 -1624,238 -600,374 -592,824 -727,1136z"/>
 </g>
</svg>
