<?xml version="1.0" encoding="UTF-8"?>
<!DOCTYPE svg PUBLIC "-//W3C//DTD SVG 1.1//EN" "http://www.w3.org/Graphics/SVG/1.1/DTD/svg11.dtd">
<!-- Creator: CorelDRAW X5 -->
<svg xmlns="http://www.w3.org/2000/svg" xml:space="preserve" width="180px" height="180px" style="shape-rendering:geometricPrecision; text-rendering:geometricPrecision; image-rendering:optimizeQuality; fill-rule:evenodd; clip-rule:evenodd"
viewBox="0 0 18000 18000"
 xmlns:xlink="http://www.w3.org/1999/xlink"
 version="1.1"
 xmlns:cc="http://creativecommons.org/ns#"
 xmlns:dc="http://purl.org/dc/elements/1.1/"
 xmlns:rdf="http://www.w3.org/1999/02/22-rdf-syntax-ns#"
 xmlns:svg="http://www.w3.org/2000/svg">
 <defs>
  <style type="text/css">
   <![CDATA[
    .fil0 {fill:##DBB52}
   ]]>
  </style>
 </defs>
 <g id="Слой_x0020_1">
  <metadata id="CorelCorpID_0Corel-Layer"/>
  <path class="fil0" d="M2814 17005l21 -55 -181 -104c-546,-314 -420,-1011 -420,-1793l0 -12520c0,-210 3,-375 50,-550 177,-663 856,-588 1309,-588 843,0 1686,0 2530,0l0 -608 5880 0 0 608c855,0 2301,-34 3100,-1 553,22 791,491 789,1107l0 12520c0,811 209,1466 -581,1917 -4,2 -13,8 -20,12l2 55 -12479 0zm147 -14883c-76,332 -32,2919 -32,3478l0 10591c122,106 79,95 316,95 3935,-6 7931,26 11856,0l88 -101 7 -12323c0,-474 57,-1352 -32,-1740 -232,-109 -1223,-62 -1549,-62 -537,0 -1075,-2 -1613,0l0 632 2245 0 0 12646c-3432,20 -6930,0 -10370,0l0 -12646 2246 0 -1 -632 -2877 0c-131,0 -200,21 -285,62zm3857 1203l4489 -1 0 -1897 -4489 0 0 1898zm-1011 10369l0 -632 6512 0 32 664 -6544 -32zm0 -2275l221 -1 6323 0 -32 1 0 694 -221 1 -6291 -1 0 -694zm6512 -1614l1 696 -6544 0 32 -664 6512 -32zm-2939 -1612l221 0 2466 0 253 0 0 664 -2940 0 0 -537 0 -126zm0 -1612l2940 0 0 664 -2940 0 0 -664zm-2593 -980l664 0 0 980 980 0 0 664 -980 0 0 980 -664 0 0 -980 -980 0 0 -664 980 0 0 -980zm2593 -632l2940 0 0 95 0 538 0 32 -2813 0 -127 0 0 -32 0 -632zm-4837 9706l9042 0 0 -11318 -1581 0 0 664 -5880 0 0 -664 -1580 0 -1 11318z"/>
 </g>
</svg>
