<?xml version="1.0" encoding="UTF-8"?>
<!DOCTYPE svg PUBLIC "-//W3C//DTD SVG 1.1//EN" "http://www.w3.org/Graphics/SVG/1.1/DTD/svg11.dtd">
<!-- Creator: CorelDRAW X5 -->
<svg xmlns="http://www.w3.org/2000/svg" xml:space="preserve" width="110px" height="51px" style="shape-rendering:geometricPrecision; text-rendering:geometricPrecision; image-rendering:optimizeQuality; fill-rule:evenodd; clip-rule:evenodd"
viewBox="0 0 11000 5100"
 xmlns:xlink="http://www.w3.org/1999/xlink"
 version="1.1"
 xmlns:cc="http://creativecommons.org/ns#"
 xmlns:dc="http://purl.org/dc/elements/1.1/"
 xmlns:rdf="http://www.w3.org/1999/02/22-rdf-syntax-ns#"
 xmlns:svg="http://www.w3.org/2000/svg">
 <defs>
  <style type="text/css">
   <![CDATA[
    .fil1 {fill:#2B2A29}
    .fil0 {fill:#FEFEFE}
   ]]>
  </style>
 </defs>
 <g id="Слой_x0020_1">
  <metadata id="CorelCorpID_0Corel-Layer"/>
  <g id="_303970752">
   <rect class="fil0" x="755" y="444" width="9500" height="4094"/>
   <path class="fil1" d="M161 116l10687 0 0 4859 -10687 0 0 -4859zm1485 3938l238 -14c5,36 16,63 32,82 26,30 63,46 110,46 36,0 63,-8 83,-23 19,-15 29,-34 29,-54 0,-19 -9,-37 -28,-52 -18,-15 -61,-30 -128,-44 -110,-23 -188,-53 -235,-91 -47,-38 -71,-86 -71,-145 0,-39 12,-75 36,-110 24,-34 60,-61 109,-81 49,-20 115,-29 199,-29 104,0 183,18 237,54 54,36 87,93 97,171l-236 13c-6,-34 -19,-59 -39,-74 -20,-15 -48,-23 -83,-23 -29,0 -51,6 -66,17 -15,11 -22,25 -22,42 0,12 6,23 18,32 12,10 40,19 84,28 109,22 188,44 235,66 47,23 82,50 103,84 22,33 32,70 32,112 0,48 -14,93 -43,133 -28,41 -69,72 -120,93 -52,21 -117,32 -195,32 -138,0 -233,-24 -286,-74 -53,-49 -83,-112 -90,-188zm1380 -504l761 0 0 186 -255 0 0 567 -250 0 0 -567 -255 0 0 -186zm1977 0l250 0 0 449c0,44 -8,86 -22,126 -15,39 -38,74 -70,104 -32,30 -65,50 -100,63 -49,17 -107,25 -175,25 -39,0 -82,-3 -129,-8 -47,-5 -86,-15 -117,-30 -31,-15 -60,-37 -86,-65 -26,-28 -44,-57 -53,-87 -15,-48 -23,-90 -23,-127l0 -449 250 0 0 459c0,41 12,73 36,96 25,23 59,35 102,35 43,0 77,-12 101,-34 24,-23 37,-55 37,-97l0 -459zm995 0l372 0c73,0 132,9 178,28 45,18 82,45 112,79 30,35 51,75 64,121 13,46 20,94 20,146 0,80 -10,143 -30,187 -20,44 -47,81 -82,111 -35,30 -72,50 -113,60 -55,14 -105,21 -149,21l-372 0 0 -753zm250 171l0 411 61 0c52,0 90,-5 112,-16 22,-11 39,-30 52,-56 13,-27 19,-71 19,-131 0,-80 -14,-134 -42,-164 -28,-30 -75,-44 -139,-44l-62 0zm1212 -171l251 0 0 753 -251 0 0 -753zm975 377c0,-123 37,-219 111,-287 74,-69 176,-103 308,-103 135,0 239,34 312,101 73,67 109,161 109,282 0,88 -16,160 -48,216 -32,56 -78,100 -138,131 -60,31 -135,47 -225,47 -91,0 -167,-14 -227,-40 -60,-27 -108,-70 -146,-129 -37,-58 -56,-132 -56,-220zm251 1c0,76 15,130 45,164 30,33 72,50 124,50 54,0 95,-16 125,-49 29,-32 44,-91 44,-175 0,-71 -15,-123 -46,-155 -31,-33 -73,-49 -125,-49 -50,0 -91,17 -122,50 -30,33 -46,88 -46,165zm-7026 -1001l0 -2149 433 0 0 2149 -433 0zm2675 -2149l-433 0 0 1480c11,56 21,111 31,166 0,20 1,40 2,60 -9,0 -18,-13 -26,-39 -9,-26 -17,-52 -25,-78l-740 -1589 -709 0 0 2149 433 0 0 -1483c0,-2 -11,-57 -33,-166 -1,-20 -2,-40 -2,-60 9,0 18,13 27,41 9,27 17,53 25,77l742 1592 708 0 0 -2149zm362 2142l0 -2148 1212 0c247,0 409,75 488,226 74,140 110,424 110,851 0,425 -36,707 -108,846 -79,150 -242,226 -490,226l-1212 0zm433 -557l707 0c93,0 156,-36 189,-108 33,-72 49,-208 49,-406 0,-201 -16,-337 -49,-411 -33,-73 -96,-110 -189,-110l-707 0 0 1035zm1728 563l0 -2149 433 0 0 2149 -433 0zm770 -2155l1679 0 0 527 -972 1068 1002 0 0 557 -1750 0 0 -527 961 -1068 -919 0 0 -557z"/>
  </g>
 </g>
</svg>
